HIERARCHY
ROOT Hips
{
	OFFSET	0.00	0.00	0.00
	CHANNELS 6 Xposition Yposition Zposition Zrotation Xrotation Yrotation
	JOINT LeftUpLeg
	{
		OFFSET	 0.126116	-0.014019	-0.065224
		CHANNELS 3 Zrotation Xrotation Yrotation
		JOINT LeftLeg
		{
			OFFSET	 0.000000	 0.000000	 0.569914
			CHANNELS 3 Zrotation Xrotation Yrotation
			JOINT LeftFoot
			{
				OFFSET	 0.000000	 0.000000	 0.544423
				CHANNELS 3 Zrotation Xrotation Yrotation
				JOINT LeftToeBase
				{
					OFFSET	 0.000000	 0.000000	 0.207117
					CHANNELS 3 Zrotation Xrotation Yrotation
					End Site
					{
						OFFSET	 0.000000	 0.000000	 0.207117
					}
				}
			}
		}
	}
	JOINT RightUpLeg
	{
		OFFSET	-0.124023	-0.008373	-0.065224
		CHANNELS 3 Zrotation Xrotation Yrotation
		JOINT RightLeg
		{
			OFFSET	 0.000000	 0.000000	 0.570047
			CHANNELS 3 Zrotation Xrotation Yrotation
			JOINT RightFoot
			{
				OFFSET	 0.000000	 0.000000	 0.544354
				CHANNELS 3 Zrotation Xrotation Yrotation
				JOINT RightToeBase
				{
					OFFSET	 0.000000	 0.000000	 0.207540
					CHANNELS 3 Zrotation Xrotation Yrotation
					End Site
					{
						OFFSET	 0.000000	 0.000000	 0.207540
					}
				}
			}
		}
	}
	JOINT Spine
	{
		OFFSET	 0.000184	-0.007763	 0.117403
		CHANNELS 3 Zrotation Xrotation Yrotation
		JOINT Spine1
		{
			OFFSET	 0.000000	 0.000000	 0.137269
			CHANNELS 3 Zrotation Xrotation Yrotation
			JOINT Spine2
			{
				OFFSET	 0.000000	 0.000000	 0.156879
				CHANNELS 3 Zrotation Xrotation Yrotation
				JOINT LeftShoulder
				{
					OFFSET	 0.080501	-0.002496	 0.160144
					CHANNELS 3 Zrotation Xrotation Yrotation
					JOINT LeftArm
					{
						OFFSET	 0.000000	 0.000000	 0.164363
						CHANNELS 3 Zrotation Xrotation Yrotation
						JOINT LeftForeArm
						{
							OFFSET	 0.000000	 0.000000	 0.364576
							CHANNELS 3 Zrotation Xrotation Yrotation
							JOINT LeftHand
							{
								OFFSET	 0.000000	 0.000000	 0.360812
								CHANNELS 3 Zrotation Xrotation Yrotation
								JOINT LeftHandIndex1
								{
									OFFSET	 0.000000	 0.000000	 0.086006
									CHANNELS 3 Zrotation Xrotation Yrotation
									JOINT LeftHandIndex2
									{
										OFFSET	 0.000000	 0.000000	 0.047236
										CHANNELS 3 Zrotation Xrotation Yrotation
										JOINT LeftHandIndex3
										{
											OFFSET	-0.004284	-0.000551	 0.038166
											CHANNELS 3 Zrotation Xrotation Yrotation
											End Site
											{
												OFFSET	-0.004284	-0.000551	 0.038166
											}
										}
									}
								}
							}
						}
					}
				}
				JOINT Neck
				{
					OFFSET	 0.000000	 0.000000	 0.176489
					CHANNELS 3 Zrotation Xrotation Yrotation
					JOINT Head
					{
						OFFSET	 0.000000	-0.001747	 0.077940
						CHANNELS 3 Zrotation Xrotation Yrotation
						End Site
						{
							OFFSET	 0.000000	-0.001747	 0.077940
						}
					}
				}
				JOINT RightShoulder
				{
					OFFSET	-0.080363	 0.000306	 0.159706
					CHANNELS 3 Zrotation Xrotation Yrotation
					JOINT RightArm
					{
						OFFSET	 0.000000	 0.000000	 0.164196
						CHANNELS 3 Zrotation Xrotation Yrotation
						JOINT RightForeArm
						{
							OFFSET	 0.000000	 0.000000	 0.365611
							CHANNELS 3 Zrotation Xrotation Yrotation
							JOINT RightHand
							{
								OFFSET	 0.000000	 0.000000	 0.360648
								CHANNELS 3 Zrotation Xrotation Yrotation
								JOINT RightHandIndex1
								{
									OFFSET	 0.000000	 0.000000	 0.069977
									CHANNELS 3 Zrotation Xrotation Yrotation
									JOINT RightHandIndex2
									{
										OFFSET	 0.000000	 0.000000	 0.052305
										CHANNELS 3 Zrotation Xrotation Yrotation
										JOINT RightHandIndex3
										{
											OFFSET	 0.009002	-0.000782	 0.042196
											CHANNELS 3 Zrotation Xrotation Yrotation
											End Site
											{
												OFFSET	 0.009002	-0.000782	 0.042196
											}
										}
									}
								}
							}
						}
					}
				}
			}
		}
	}
}
MOTION
Frames:    6
Frame Time: 0.03333334
 7.614415	 0.750470	-1.148309	-167.395300	 0.629200	 3.667936	 5.061490	-3.903846	 176.462400	-11.329400	-33.826960	-5.217517	 171.982000	 86.689210	 179.311700	-2.377594	 30.156190	-0.037260	 1.799057	-12.622500	 178.866200	 3.684124	-47.846180	 5.777906	-175.127200	 82.222240	-178.918000	 2.403636	 22.161680	-0.129844	-2.710758	 0.731799	-1.849951	-3.505924	-2.035137	-0.403046	-3.770940	-4.086473	-0.383119	-91.809410	 77.640130	 179.113200	 37.753200	 70.339810	-40.832870	-8.156009	-4.000678	-19.791240	 5.938918	-2.221206	-5.333437	-3.812334	 37.924440	-2.927599	-2.450526	 36.184240	 0.754587	-1.378229	 35.397820	-2.634230	 0.578580	 6.149780	-3.240840	-0.609459	-13.549780	-1.824261	 89.766360	 79.235080	-179.657900	-37.301580	 70.735260	 39.864750	 4.221961	-8.019664	 31.145000	-11.509990	-3.194958	 9.597095	 6.437017	 35.671460	-0.771858	 2.830251	 35.756010	-7.813440	-2.350882	 35.473990	 5.254307
 7.614322	 0.754768	-1.148465	-167.945200	 0.642124	 3.688502	 5.059546	-3.936282	 176.469000	-11.284640	-33.689170	-5.168730	 171.938600	 86.646660	 179.376000	-2.377626	 30.151420	-0.037151	 1.782503	-12.640130	 178.904200	 3.651056	-47.592960	 5.716969	-175.231000	 82.182170	-178.819600	 2.403685	 22.136450	-0.130358	-2.711164	 0.743846	-1.877190	-3.505422	-2.020381	-0.411165	-3.778926	-4.057491	-0.382982	-91.809590	 77.631070	 179.116600	 36.867380	 69.876740	-39.951150	-7.951518	-3.987675	-19.732680	 5.926165	-2.219365	-5.333981	-3.812334	 37.924440	-2.927599	-2.450526	 36.184240	 0.754587	-1.378229	 35.397820	-2.634230	 0.564233	 6.078934	-3.219229	-0.624894	-13.427740	-1.847677	 89.765960	 79.244640	-179.651900	-36.463940	 70.289270	 39.115470	 4.199862	-7.839770	 30.844300	-11.294640	-3.195579	 9.596818	 6.437017	 35.671460	-0.771858	 2.830251	 35.756010	-7.813440	-2.350882	 35.473990	 5.254307
 7.613172	 0.759660	-1.148812	-167.757800	 0.680207	 3.694480	 5.045195	-4.040742	 176.489000	-11.200170	-33.818350	-5.146581	 171.966000	 86.505310	 179.414800	-2.377139	 30.243740	-0.039195	 1.760864	-12.692190	 178.981800	 3.669577	-47.683840	 5.735737	-175.498600	 82.018960	-178.557500	 2.403671	 22.145590	-0.130168	-2.722446	 0.784829	-1.933979	-3.531863	-1.989887	-0.412669	-3.835910	-4.022584	-0.387602	-91.809810	 77.605490	 179.135500	 36.699910	 69.869210	-39.698280	-8.000193	-4.012990	-20.015100	 5.880442	-2.214860	-5.335570	-3.812334	 37.924440	-2.927599	-2.450526	 36.184240	 0.754587	-1.378229	 35.397820	-2.634230	 0.500470	 6.041366	-3.206739	-0.689317	-13.349690	-1.855479	 89.765150	 79.269010	-179.644100	-36.368580	 70.370650	 39.090950	 4.248721	-7.802860	 30.578980	-11.330120	-3.196357	 9.596425	 6.437017	 35.671460	-0.771858	 2.830251	 35.756010	-7.813440	-2.350882	 35.473990	 5.254307
 7.613146	 0.755017	-1.149181	-167.604600	 0.731174	 3.715156	 5.028535	-4.166538	 176.509100	-11.109510	-33.984380	-5.127760	 171.977500	 86.346500	 179.474600	-2.376509	 30.362080	-0.041821	 1.786706	-12.759690	 178.976600	 3.732652	-47.842730	 5.818534	-175.732100	 81.810600	-178.284900	 2.403625	 22.169160	-0.129695	-2.726518	 0.803764	-1.976814	-3.543782	-1.965370	-0.429143	-3.869460	-3.995357	-0.390082	-91.809620	 77.594580	 179.149900	 36.611990	 69.835250	-39.591330	-8.050087	-4.031096	-20.281120	 5.822626	-2.210599	-5.337067	-3.812334	 37.924440	-2.927599	-2.450526	 36.184240	 0.754587	-1.378229	 35.397820	-2.634230	 0.467607	 5.931686	-3.296250	-0.715238	-13.217270	-1.753894	 89.764480	 79.279510	-179.633100	-36.285860	 70.432210	 39.036970	 4.267818	-7.763159	 30.318110	-11.359330	-3.197440	 9.595818	 6.437017	 35.671460	-0.771858	 2.830251	 35.756010	-7.813440	-2.350882	 35.473990	 5.254307
 7.613458	 0.748377	-1.149531	-167.506200	 0.776903	 3.737846	 5.010587	-4.289389	 176.530700	-11.017010	-34.155200	-5.108809	 171.963200	 86.195790	 179.560900	-2.375859	 30.482110	-0.044492	 1.855223	-12.864980	 178.970700	 3.839709	-48.088970	 5.974758	-176.042100	 81.606670	-177.896800	 2.403556	 22.208210	-0.128901	-2.720621	 0.822526	-1.997201	-3.540163	-1.958504	-0.456334	-3.877873	-3.990082	-0.390753	-91.808760	 77.607220	 179.160000	 36.588170	 69.782970	-39.603430	-8.093135	-4.040754	-20.493830	 5.764002	-2.206068	-5.338484	-3.812334	 37.924440	-2.927599	-2.450526	 36.184240	 0.754587	-1.378229	 35.397820	-2.634230	 0.468619	 5.773681	-3.453721	-0.708673	-13.080160	-1.592632	 89.764240	 79.265850	-179.623500	-36.258520	 70.472750	 39.045810	 4.258621	-7.735754	 30.092260	-11.398470	-3.199028	 9.594966	 6.437017	 35.671460	-0.771858	 2.830251	 35.756010	-7.813440	-2.350882	 35.473990	 5.254307
 7.612653	 0.745758	-1.149894	-167.457500	 0.813736	 3.732842	 5.001999	-4.415049	 176.561100	-10.919370	-34.337380	-5.081803	 171.973200	 86.042300	 179.637100	-2.375230	 30.597310	-0.047060	 1.878388	-13.047670	 178.972500	 4.043798	-48.486580	 6.191665	-176.147300	 81.411770	-177.686500	 2.403273	 22.364110	-0.125754	-2.711660	 0.879244	-1.984206	-3.547024	-1.970803	-0.483153	-3.900885	-4.008276	-0.393689	-91.807110	 77.640110	 179.174200	 36.594190	 69.711650	-39.686350	-8.132569	-4.044632	-20.676180	 5.702611	-2.201388	-5.339902	-3.812334	 37.924440	-2.927599	-2.450526	 36.184240	 0.754587	-1.378229	 35.397820	-2.634230	 0.445389	 5.584998	-3.523063	-0.731060	-12.961900	-1.548007	 89.764820	 79.230550	-179.621300	-36.308960	 70.504970	 39.194390	 4.226934	-7.726074	 29.872770	-11.469650	-3.200949	 9.593945	 6.437017	 35.671460	-0.771858	 2.830251	 35.756010	-7.813440	-2.350882	 35.473990	 5.254307
